<svg width="1024" height="1024" xmlns="http://www.w3.org/2000/svg" xml:space="preserve" enable-background="new 0 0 1024 1024" version="1.1">

 <g>
  <title>Layer 1</title>
  <g stroke="null" id="svg_49">
   <path stroke="null" id="svg_2" d="m746.84912,66.88107c133.14443,72.27599 216.48783,180.54716 252.81147,322.69487c15.51639,60.72137 18.03686,122.48914 10.09104,184.53163c-15.63949,122.11514 -69.30132,226.27018 -161.25136,311.30615c-68.26809,63.13473 -149.6792,103.40131 -242.57557,120.35209c-147.25172,26.86887 -280.80575,-4.66566 -398.71579,-93.5061c-86.91192,-65.48459 -144.31993,-151.2211 -175.69149,-253.11643c-19.54372,-63.47836 -25.18741,-128.36803 -19.64175,-194.28331c8.41576,-100.02892 43.78489,-190.22626 107.95654,-269.11076c77.06901,-94.73886 177.01859,-155.06656 299.84127,-177.90677c114.63935,-21.31843 223.6781,-4.0492 327.17564,49.03862m-704.12174,507.42121c2.28428,13.29233 3.91348,26.72604 6.95517,39.85478c27.46705,118.55615 89.50396,216.17863 191.99552,287.60344c109.43353,76.26234 231.77025,101.05899 363.7901,75.4578c108.82254,-21.10277 198.75954,-74.70155 267.49716,-158.86949c97.4839,-119.36711 131.06841,-255.31414 101.94051,-404.09541c-26.31605,-134.41903 -101.38211,-239.05793 -221.93828,-311.03723c-107.63414,-64.26396 -225.00818,-82.13186 -347.92654,-53.66101c-137.59356,31.86997 -239.13186,111.05336 -307.1715,230.23276c-31.0368,54.36463 -49.164,112.93433 -55.83214,174.768c-4.26577,39.55651 -4.06217,79.06077 0.69001,119.74636z" fill="#d64211"/>
   <path stroke="null" id="svg_4" d="m663.61672,696.45999c-0.02392,19.25671 0.75126,37.88907 -0.23863,56.43349c-1.92237,36.0097 -19.32906,64.98516 -46.65946,88.57769c-66.32379,57.25288 -179.09221,54.12668 -236.40017,-28.05604c-14.24919,-20.43406 -21.64528,-43.02775 -21.59641,-67.99188c0.20536,-104.91823 0.49327,-209.83932 -0.11768,-314.75469c-0.22914,-39.35641 15.87966,-70.41473 45.55024,-96.10271c2.17611,-1.88403 3.88033,-5.34997 4.01716,-8.16144c0.48294,-9.92647 0.18795,-19.8882 0.18795,-30.40983c9.84541,0 19.31542,0 29.88168,0c0,11.03424 -0.81662,22.33286 0.22928,33.46843c1.04897,11.16757 -2.61132,18.026 -12.17312,25.07113c-24.95464,18.38654 -38.21031,43.01862 -38.1329,74.24095c0.26194,105.58155 -0.22524,211.16483 0.0141,316.7465c0.087,38.38153 20.56445,66.32117 52.54134,86.61516c58.28128,36.98814 137.28676,21.79457 175.91759,-33.20671c11.30648,-16.09792 17.30391,-33.75063 17.26487,-53.53142c-0.20925,-105.8037 -0.33966,-211.60886 0.07279,-317.41151c0.13292,-34.10309 -15.93925,-59.0641 -43.41937,-78.39487c-3.79115,-2.66685 -5.22794,-5.2475 -5.14204,-9.68534c0.28205,-14.56976 0.10614,-29.14775 0.10614,-44.10735c9.69245,0 18.95742,0 29.13302,0c0,10.44013 -0.24653,20.77512 0.16961,31.08516c0.10689,2.64822 1.61924,5.9479 3.64212,7.71368c29.14881,25.44447 45.5143,56.03786 45.27062,94.93241c-0.55596,88.75206 -0.13889,177.50972 -0.11874,266.92919z" fill="#d64211"/>
   <path stroke="null" id="svg_5" d="m371.32694,240.90796c0.00827,-12.16863 -0.04379,-23.67353 0.03648,-35.17764c0.11181,-16.02002 10.49518,-26.16584 27.00615,-26.18003c75.39672,-0.06489 150.79353,-0.08998 226.19027,-0.04844c15.24972,0.00843 25.11766,8.27797 26.79417,22.1317c0.31756,2.62372 0.19204,5.30262 0.19337,7.95609c0.01226,23.8573 0.00714,47.71459 0.00714,72.03907c-93.44116,0 -186.35609,0 -280.22889,0c0,-13.25697 0,-26.65684 0.00131,-40.72077z" fill="#d64211"/>
   <path stroke="null" id="svg_6" d="m497.58313,599.00466c17.96532,-7.70651 43.68034,4.47573 42.40772,29.02773c-0.90291,17.41763 0.13057,34.92071 -0.15846,52.37855c-0.22982,13.88449 -10.05342,24.86483 -23.95578,27.74589c-13.065,2.70752 -26.2504,-3.02065 -32.24786,-14.77351c-2.04496,-4.00727 -3.18341,-8.83605 -3.27073,-13.316c-0.36178,-18.56168 -0.28478,-37.13446 -0.12541,-55.70126c0.10043,-11.69992 5.87806,-20.10398 17.35052,-25.3614z" fill="#d64211"/>
   <path stroke="null" id="svg_7" d="m532.21497,730.91815c5.72907,6.04106 7.75883,12.78479 7.69468,20.43026c-0.14301,17.03866 0.02419,34.0796 0.0036,51.11955c-0.02083,17.25616 -12.67071,30.557 -29.16703,30.75609c-17.08699,0.20622 -30.29236,-12.67146 -30.50098,-30.12525c-0.20102,-16.81656 0.20088,-33.64194 -0.14266,-50.45427c-0.26887,-13.15809 4.07057,-23.72896 17.09282,-29.03853c12.88319,-5.25288 24.66839,-2.5624 35.01957,7.31215z" fill="#d64211"/>
   <path stroke="null" id="svg_8" d="m548.9337,688.83908c0.86161,-18.34792 13.04556,-29.87883 30.53756,-29.51882c16.67751,0.34314 29.10901,12.83538 29.2709,29.78106c0.16886,17.68019 0.26206,35.36647 -0.03022,53.04366c-0.23579,14.26202 -9.55332,25.29463 -23.20714,28.4162c-13.16453,3.00971 -27.19596,-3.07602 -33.26804,-15.36081c-2.16821,-4.38666 -2.94325,-9.74542 -3.0571,-14.68832c-0.39197,-17.0111 -0.21043,-34.0346 -0.24595,-51.67297z" fill="#d64211"/>
   <path stroke="null" id="svg_9" d="m493.75216,477.24634c22.79275,-11.56211 46.05731,1.69077 46.22516,25.95403c0.12091,17.48253 0.20673,34.97043 -0.10966,52.44887c-0.25073,13.85045 -9.49521,24.52776 -23.18874,27.7227c-13.18078,3.07529 -27.15061,-2.73686 -32.97113,-14.57345c-2.1783,-4.4297 -3.2659,-9.73422 -3.37484,-14.67015c-0.39054,-17.69649 -0.23016,-35.40653 -0.11571,-53.11047c0.06462,-9.99298 4.56926,-17.84382 13.53492,-23.77153z" fill="#d64211"/>
   <path stroke="null" id="svg_10" d="m597.39176,541.70387c7.76378,5.86013 11.26182,13.34786 11.3431,22.18366c0.16491,17.90644 0.29607,35.82059 -0.06591,53.72201c-0.29566,14.62614 -9.97191,25.60857 -24.03599,28.34916c-13.59613,2.64938 -27.19109,-3.67362 -32.80897,-16.09412c-1.94052,-4.29027 -2.56389,-9.3974 -2.66524,-14.15371c-0.35275,-16.57538 0.00319,-33.1648 -0.33419,-49.74076c-0.24326,-11.9509 4.3493,-21.31069 15.22326,-26.90307c11.20942,-5.76497 22.47274,-5.03062 33.34394,2.63682z" fill="#d64211"/>
   <path stroke="null" id="svg_11" d="m411.30016,748.55652c-0.20144,-21.3308 -0.53084,-42.09821 -0.29984,-62.85978c0.15869,-14.26168 12.91184,-25.78861 28.19085,-26.28042c15.4986,-0.49894 30.4711,11.05555 30.97994,25.20488c0.72222,20.08225 0.67968,40.20707 0.30847,60.30238c-0.21164,11.45934 -9.88517,21.81053 -21.96584,25.19605c-11.48667,3.2191 -24.2681,-0.60627 -31.2423,-9.876c-2.50049,-3.32351 -3.93782,-7.39255 -5.97128,-11.68711z" fill="#d64211"/>
   <path stroke="null" id="svg_12" d="m410.89511,570.33999c1.28269,-7.48763 1.13358,-14.99457 4.16289,-21.00961c5.7111,-11.33993 20.25276,-16.39138 32.92398,-13.18824c12.91376,3.26448 22.25674,14.08593 22.46632,26.83887c0.30133,18.33081 0.48042,36.67305 0.15803,55.00127c-0.2842,16.15475 -14.12017,28.61683 -30.73572,28.4671c-16.5849,-0.14948 -28.77057,-12.31324 -28.90459,-29.0656c-0.12368,-15.46247 -0.05302,-30.92632 -0.07091,-47.04378z" fill="#d64211"/>
   <path stroke="null" id="svg_13" d="m723.33433,486.31918c-18.54001,-0.00061 -36.39224,-0.00061 -54.63249,-0.00061c0,-3.05904 0,-5.37951 0,-8.54267c2.52845,0 4.97108,0.00372 7.41381,-0.00057c25.67613,-0.04524 51.35268,-0.17972 77.0278,-0.04966c4.18548,0.02125 6.41802,-1.33077 8.60632,-4.79667c11.41967,-18.08702 23.19412,-35.96529 35.11441,-54.33099c-11.48014,-15.39702 -24.47757,-30.66656 -34.85344,-47.44683c-7.93282,-12.82917 -17.64793,-16.46246 -32.27125,-15.45817c-17.79403,1.22194 -35.7446,0.48156 -53.62168,0.22133c-2.38167,-0.03461 -4.72967,-2.23158 -7.09312,-3.42718c1.58104,-1.68234 3.14537,-4.81369 4.74563,-4.83088c26.13057,-0.28109 52.26651,-0.23662 78.39852,0.00774c1.76139,0.01642 3.99277,1.86777 5.17638,3.44543c15.71238,20.94521 31.36943,41.93129 46.72277,63.12155c1.4194,1.9589 1.93471,6.13673 0.73455,8.00824c-12.63536,19.70446 -25.70535,39.14912 -39.14891,59.40943c9.90917,13.56101 20.00584,27.44519 30.17749,41.27788c8.08757,10.99857 16.42537,21.82958 24.31535,32.95752c2.58832,3.65043 5.23416,5.55923 10.00516,5.13956c5.23239,-0.4602 10.53666,-0.2158 15.80878,-0.17396c3.08935,0.02448 6.97582,-0.82807 7.08213,3.96058c0.10328,4.65214 -3.57545,4.85707 -6.76197,4.2105c-17.3652,-3.52341 -27.19831,4.53005 -36.07298,18.26726c-14.03411,21.72338 -30.10957,42.22482 -45.58206,63.06282c-1.41939,1.91155 -4.69995,3.51669 -7.15568,3.56978c-15.58173,0.33682 -31.17438,0.19382 -46.76349,0.21635c-3.38006,0.00486 -7.22286,-0.21643 -6.35983,-4.56085c0.3106,-1.56371 4.09252,-3.48158 6.32934,-3.52916c13.97693,-0.29791 27.96847,0.04888 41.9459,-0.23736c2.468,-0.0505 5.82287,-1.43262 7.19683,-3.28581c19.03559,-25.67569 37.7967,-51.54123 56.8134,-77.61877c-15.6495,-21.09457 -32.34741,-41.66296 -46.67231,-63.67092c-8.03215,-12.34012 -17.0599,-17.36989 -31.5141,-15.03717c-4.68399,0.75591 -9.60874,0.12139 -15.11125,0.12224z" fill="#d64211"/>
   <path stroke="null" id="svg_14" d="m272.32259,451.92595c-7.2734,-9.96019 -14.18995,-19.58486 -21.35496,-29.03391c-2.68241,-3.53747 -2.76708,-6.15224 0.07696,-9.93935c14.90515,-19.84766 29.52019,-39.90099 44.01575,-60.03067c2.73804,-3.80234 5.53914,-5.62683 10.6007,-5.56474c23.31919,0.28636 46.64426,0.12629 69.94538,0.12629c1.98582,6.34089 0.20082,8.77108 -6.57189,8.67381c-19.70332,-0.28312 -39.41841,0.1466 -59.11954,-0.19865c-4.82699,-0.08467 -7.52998,1.53242 -10.10217,5.06981c-13.66867,18.7979 -27.49647,37.48789 -41.66422,56.75238c2.18527,3.21391 4.43915,6.74811 6.9144,10.1314c11.22663,15.34481 22.39306,30.73412 33.92614,45.86229c1.56898,2.05807 5.05471,3.80401 7.70278,3.87132c14.61794,0.37164 29.25137,0.17774 43.76171,0.17774c2.14085,7.9809 1.75515,8.5526 -5.72617,8.55309c-13.97877,0.00097 -27.96314,0.14923 -41.93137,-0.23432c-2.68282,-0.07369 -6.20706,-1.64351 -7.79716,-3.65955c-7.76043,-9.83904 -14.99656,-20.06349 -22.67634,-30.55695z" fill="#d64211"/>
   <path stroke="null" id="svg_15" d="m264.24523,379.48906c-9.44953,12.77405 -18.60391,25.1635 -27.98211,37.85588c12.5197,17.22973 24.95526,34.41884 37.50397,51.53058c1.84062,2.51004 3.74218,4.64937 0.38152,7.29098c-3.96776,3.11871 -5.22379,-0.5747 -6.77812,-2.67025c-11.59749,-15.63607 -23.28573,-31.21645 -34.47924,-47.12015c-3.13033,-4.44764 -6.51749,-6.07467 -11.86849,-5.78576c-8.228,0.44422 -16.51142,0.69548 -24.72284,0.2307c-2.71314,-0.15361 -5.27648,-2.77325 -7.90833,-4.26533c2.68421,-1.39101 5.30851,-3.83535 8.06346,-3.98129c9.36939,-0.49647 18.78848,-0.3249 28.18108,-0.10709c3.8172,0.08856 6.07282,-1.14497 8.26432,-4.27511c8.71535,-12.44818 17.81957,-24.64267 26.78427,-36.92807c8.95902,-12.27771 17.92339,-24.55176 27.20519,-37.26538c-2.09006,-2.95163 -4.98792,-5.9562 -6.45762,-9.51111c-0.94322,-2.2814 0.21731,-5.37338 0.43483,-8.10206c2.23851,0.98694 5.81245,1.44297 6.49705,3.04773c4.189,9.82003 12.25776,10.15673 21.3764,9.55516c7.98921,-0.52699 16.0627,-0.58637 24.05199,-0.11317c4.65334,0.27558 12.77038,-3.2377 12.94962,4.17718c0.18136,7.50572 -7.99579,4.36749 -12.58473,4.51923c-10.75654,0.35566 -21.54603,0.08877 -32.31093,-0.25498c-4.09039,-0.13064 -6.62631,1.10476 -8.98095,4.42491c-8.92053,12.57842 -18.18768,24.92777 -27.62033,37.74739z" fill="#d64211"/>
   <path stroke="null" id="svg_16" d="m783.90764,535.68039c6.29887,8.45205 12.22485,16.59031 18.51441,24.45765c2.37899,2.97583 2.38259,5.18512 0.17473,8.18633c-16.02793,21.78717 -31.86626,43.7047 -47.97825,65.43319c-1.19462,1.61105 -4.03829,2.89031 -6.14454,2.93149c-13.05344,0.25519 -26.11873,0.25128 -39.16991,-0.0621c-1.78331,-0.04287 -3.50978,-2.28898 -5.26261,-3.51497c1.72159,-1.51248 3.39181,-4.26473 5.17344,-4.33364c10.52155,-0.4071 21.08006,-0.46247 31.60321,-0.0677c5.17042,0.19391 8.21367,-1.41568 11.17541,-5.5816c13.97423,-19.65571 28.36312,-39.03661 42.94369,-58.98001c-10.43784,-13.93783 -22.40407,-27.50108 -31.44006,-42.68915c-8.36382,-14.05809 -18.99494,-18.0239 -34.93874,-16.75649c-17.52198,1.39287 -35.25548,0.30732 -52.89678,0.30185c-2.23809,-0.00073 -4.47617,-0.00012 -6.9744,-0.00012c0,-2.83705 0,-4.9641 0,-8.02043c2.57715,0 5.01542,-0.00041 7.45369,0.00008c24.97265,0.00498 49.94647,-0.09095 74.91601,0.17931c2.36673,0.02561 5.46591,1.79923 6.93468,3.69369c8.77275,11.31512 17.16679,22.9039 25.91603,34.82261z" fill="#d64211"/>
   <path stroke="null" id="svg_17" d="m434.91131,428.18133c-0.03409,21.44239 -0.0636,42.22199 -0.10458,63.00156c-0.00432,2.20986 0.01612,4.4254 -0.13283,6.62837c-0.49672,7.34664 -5.07963,11.71161 -12.08409,11.60075c-6.33758,-0.10031 -11.07889,-4.78005 -11.52102,-11.65246c-0.24099,-3.74524 -0.12796,-7.51309 -0.13283,-11.27081c-0.03007,-23.21127 -0.05328,-46.42248 -0.06235,-69.63374c-0.00084,-2.20889 -0.09023,-4.44363 0.20917,-6.62181c0.84396,-6.14029 5.96787,-10.33211 12.25225,-10.22445c6.11972,0.1049 10.76019,4.02211 11.27517,10.28201c0.47005,5.7143 0.22965,11.48307 0.30111,17.89058z" fill="#d64211"/>
   <path stroke="null" id="svg_18" d="m815.9698,276.09374c-6.53943,0.40832 -9.85945,4.21829 -13.13581,8.6473c-11.95188,16.15674 -24.16118,32.13599 -36.63122,48.656c12.12643,16.63717 24.19595,33.24866 36.32766,49.81776c5.81153,7.9373 11.94465,15.66501 17.46573,23.78324c1.29253,1.90049 0.69325,5.0001 0.96429,7.54798c-2.62049,-0.92752 -6.33951,-1.0885 -7.69493,-2.89877c-17.28914,-23.09063 -34.32511,-46.36018 -51.17316,-69.75351c-2.24003,-3.11014 -4.38231,-4.32074 -8.25744,-4.24134c-11.90568,0.24385 -23.82867,0.30691 -35.72452,-0.1068c-2.4795,-0.08621 -6.68782,-2.24238 -6.96323,-3.92337c-0.82801,-5.0545 3.83038,-4.31783 7.12646,-4.36031c11.9093,-0.15341 23.82103,-0.30987 35.72974,-0.21766c3.75606,0.02906 6.06519,-0.98208 8.34803,-4.1784c12.07261,-16.90345 24.54424,-33.54101 36.82375,-50.30746c0.99327,-1.35607 2.39469,-3.08685 2.2155,-4.47627c-0.7626,-5.91044 1.1874,-10.64083 7.26241,-11.56123c3.13446,-0.47482 7.92904,1.36166 9.96913,3.74975c3.89201,4.5557 2.09031,9.53116 -2.65239,13.82308z" fill="#d64211"/>
   <path stroke="null" id="svg_19" d="m277.35359,625.62514c2.21873,1.51361 4.2888,3.32214 6.37667,3.34142c22.20904,0.20582 44.42086,0.12775 67.18611,0.12775c0,2.85967 0,5.37028 0,8.88688c-2.28062,0 -4.6838,0.0038 -7.08696,-0.00057c-21.08962,-0.0385 -42.18177,-0.23573 -63.26593,0.07272c-2.76385,0.04044 -6.43268,2.01028 -8.07702,4.2066c-11.39454,15.21994 -22.35973,30.73932 -33.47796,46.15234c-0.91202,1.26426 -1.69368,2.88771 -2.97664,3.55689c-1.36737,0.71336 -3.69494,1.16082 -4.79928,0.49019c-1.12349,-0.68215 -1.98748,-3.0265 -1.67294,-4.35876c0.48495,-2.05414 1.92727,-3.96164 3.21317,-5.76546c9.46292,-13.27351 18.98789,-26.50594 28.83027,-40.22076c-7.54283,-3.19891 -12.0237,-8.40106 -9.82202,-16.53616c1.50815,-5.5726 5.72168,-9.16734 11.84271,-9.57883c6.81469,-0.45817 11.16613,3.12029 13.72981,9.62576z" fill="#d64211"/>
   <path stroke="null" id="svg_20" d="m725.74076,818.64444c0.02822,6.85892 0.46578,13.09162 -0.13233,19.23045c-0.20917,2.14696 -2.9686,4.06231 -4.56333,6.08346c-1.50807,-2.05924 -4.32092,-4.11176 -4.33234,-6.17871c-0.24763,-44.69854 -0.24913,-89.39895 0.00612,-134.09749c0.01369,-2.39923 2.54576,-6.70594 4.1587,-6.82113c5.13819,-0.36698 4.89476,4.02932 4.89459,7.60047c-0.00117,37.83996 -0.01738,75.67991 -0.03141,114.18296z" fill="#d64211"/>
   <path stroke="null" id="svg_21" d="m326.20162,789.25265c0.0207,3.73077 0.50536,6.91849 -0.1272,9.8841c-0.36603,1.71586 -2.5319,3.074 -3.88777,4.59321c-1.49775,-1.40409 -3.3738,-2.60067 -4.3642,-4.28306c-0.69493,-1.1806 -0.20628,-3.02349 -0.20593,-4.57066c0.00704,-33.83624 0.01973,-67.67257 0.03115,-101.50881c0.00008,-0.22115 -0.0196,-0.44351 -0.00231,-0.66326c0.28075,-3.56994 -0.98562,-8.6715 4.66238,-8.60996c5.39029,0.05877 3.95818,5.05891 3.96263,8.32178c0.04371,32.06671 -0.03178,64.13358 -0.06873,96.83666z" fill="#d64211"/>
   <path stroke="null" id="svg_22" d="m725.75294,188.01912c0.03569,29.10727 0.07843,57.58021 0.09783,86.05319c0.00135,1.9777 0.36106,4.18805 -0.4232,5.8641c-0.70475,1.50632 -2.75994,3.35225 -4.21008,3.34472c-1.45785,-0.00758 -3.39383,-1.86953 -4.21335,-3.37807c-0.77091,-1.41897 -0.45192,-3.43708 -0.45267,-5.19165c-0.0126,-29.57661 -0.00176,-59.15319 0.01142,-88.72982c0.00067,-1.54376 -0.49609,-3.43046 0.23503,-4.55254c1.15339,-1.77022 3.15258,-3.02689 4.79373,-4.501c1.3718,1.4998 3.26755,2.80434 3.96733,4.55453c0.693,1.7335 0.1797,3.9164 0.19396,6.53653z" fill="#d64211"/>
   <path stroke="null" id="svg_23" d="m317.68713,193.17247c-0.0116,-3.74698 -0.59785,-6.98124 0.15151,-9.89538c0.58913,-2.29113 2.82709,-4.18704 4.3326,-6.25852c1.40109,2.06702 3.97593,4.11282 4.01657,6.20453c0.30968,15.91763 0.08637,31.84435 0.10392,47.76816c0.01611,14.59647 0.13203,29.19278 0.18502,43.78929c0.00563,1.5432 0.35081,3.31031 -0.29767,4.57343c-0.80249,1.56298 -2.77931,3.97018 -3.71283,3.76291c-1.78294,-0.39584 -3.67204,-2.13132 -4.59772,-3.78922c-0.77397,-1.38622 -0.27604,-3.45471 -0.2744,-5.22103c0.02486,-26.76113 0.06079,-53.52227 0.093,-80.93418z" fill="#d64211"/>
   <path stroke="null" id="svg_24" d="m196.01199,558.01466c4.9718,-3.88397 10.00117,-4.64912 15.08388,-1.77852c5.18559,2.92865 7.45529,7.41922 6.75874,13.40615c-0.19578,1.6823 0.78828,3.71082 1.77009,5.26286c3.3366,5.27454 7.24843,10.23835 10.20361,15.69294c0.93074,1.71796 -0.45696,4.60657 -0.78351,6.95943c-2.00361,-0.99717 -4.46883,-1.58293 -5.90532,-3.08535c-2.30006,-2.40563 -4.05151,-5.34288 -5.79377,-8.19281c-2.74169,-4.48498 -5.07298,-7.82916 -12.10963,-6.23384c-3.19923,0.72527 -8.85785,-3.2131 -11.39147,-6.48586c-3.71307,-4.79643 -2.39103,-10.49459 2.16739,-15.545z" fill="#d64211"/>
   <path stroke="null" id="svg_25" d="m137.54756,588.976c-9.89493,-2.58153 -14.23106,-9.97765 -11.11733,-18.02495c2.66082,-6.87684 11.14794,-10.23673 18.09751,-7.16436c7.02719,3.10674 9.90946,11.77475 6.0095,18.58088c-2.66062,4.64339 -6.84952,6.93033 -12.98968,6.60843z" fill="#d64211"/>
   <path stroke="null" id="svg_26" d="m913.31272,568.66952c-5.3376,7.66566 -11.59097,9.81092 -18.16551,6.66955c-5.72807,-2.73694 -8.65308,-9.63387 -6.72653,-15.86074c2.02893,-6.55776 9.60346,-10.67788 16.28707,-8.85931c7.27098,1.97836 10.88892,9.22775 8.60498,18.05049z" fill="#d64211"/>
   <path stroke="null" id="svg_27" d="m338.76214,505.01999c-12.93787,0.05606 -25.2628,0.28855 -37.56696,-0.09617c-2.42487,-0.0758 -6.53385,-2.25749 -6.81342,-3.94064c-0.76822,-4.62482 3.69115,-3.99634 6.70431,-4.02147c12.31616,-0.10255 24.63728,-0.17963 36.9473,0.10498c1.91087,0.04419 3.77383,2.01901 5.65888,3.10099c-1.43661,1.60417 -2.87322,3.20832 -4.93011,4.85231z" fill="#d64211"/>
   <path stroke="null" id="svg_28" d="m134.0076,412.45541c5.8265,-0.08921 11.1039,-0.48025 16.25026,0.14085c1.96568,0.23714 3.63131,2.79169 5.43369,4.29006c-1.77951,1.2962 -3.44765,3.49225 -5.36036,3.71297c-4.9288,0.56871 -9.98099,0.49145 -14.95138,0.1835c-1.74059,-0.10786 -4.87651,-1.81031 -4.79387,-2.49359c0.24066,-1.98953 1.78641,-3.83197 3.42166,-5.83378z" fill="#d64211"/>
   <path stroke="null" id="svg_29" d="m793.73596,688.65781c-2.28243,5.34928 -5.39412,5.66892 -8.66166,1.59946c-3.0614,-3.81289 -6.11129,-7.7442 -8.32369,-12.02888c-0.90031,-1.74366 0.42329,-4.55752 0.73506,-6.88445c2.10618,0.6434 5.05774,0.65815 6.16419,2.0449c3.70846,4.64858 6.75811,9.78692 10.08611,15.26897z" fill="#d64211"/>
   <path stroke="null" id="svg_30" d="m254.92468,290.21623c0.58482,-2.58287 1.47304,-4.74157 2.36126,-6.90029c1.85188,0.92607 4.19984,1.4424 5.45626,2.86023c2.95984,3.34 5.82572,6.90289 7.85556,10.79989c0.91232,1.75144 -0.26702,4.51833 -0.49726,6.82441c-2.15366,-0.62415 -5.01127,-0.62241 -6.32175,-1.99622c-3.22875,-3.38475 -5.74683,-7.40134 -8.85407,-11.58802z" fill="#d64211"/>
   <path stroke="null" id="svg_31" d="m238.22202,591.0483c-2.24154,-5.52591 -4.18292,-10.65064 -6.12426,-15.77544c0.76078,-0.48096 1.52158,-0.96198 2.28237,-1.44301c1.31923,0.78177 3.09884,1.26856 3.87547,2.39809c2.88133,4.19032 5.75375,8.44646 7.96132,12.98113c0.99031,2.03411 0.40111,4.78491 0.52865,7.21048c-2.37554,-1.101 -4.78144,-2.14703 -7.10333,-3.34498c-0.52366,-0.2701 -0.75445,-1.06939 -1.42023,-2.02626z" fill="#d64211"/>
   <path stroke="null" id="svg_32" d="m835.68933,419.36904c0.88241,-2.56974 2.02446,-6.49866 3.38156,-6.56915c4.25526,-0.22099 9.6063,-0.24019 12.61261,2.03116c3.04142,2.29785 0.09388,5.95687 -3.6208,6.16886c-3.96623,0.22641 -8.00712,-0.76488 -12.37337,-1.63087z" fill="#d64211"/>
   <path stroke="null" id="svg_33" d="m256.27867,192.874c-1.14156,-1.7947 -2.25132,-3.34876 -2.33226,-4.95122c-0.18268,-3.6172 -1.04301,-8.10733 4.28614,-8.85716c1.18836,-0.16724 3.97678,2.95321 4.12822,4.71241c0.34132,3.96496 2.07623,9.52243 -6.08211,9.09597z" fill="#d64211"/>
   <path stroke="null" id="svg_34" d="m681.99804,631.55532c-1.54191,9.0242 -8.11604,3.69438 -13.92983,5.86483c0.83481,-3.6801 1.40092,-8.02006 1.88333,-8.01139c3.99999,0.07183 7.98445,0.94714 12.0465,2.14655z" fill="#d64211"/>
   <path stroke="null" id="svg_35" d="m669.14712,647.77703c3.99084,-1.17899 7.78099,-1.81874 13.13028,-2.72162c-0.68005,3.62012 -0.51062,7.18925 -1.58439,7.58087c-2.99927,1.0937 -6.55758,1.25631 -9.79372,0.90766c-0.84187,-0.09063 -1.312,-3.39784 -1.75216,-5.76691z" fill="#d64211"/>
   <path stroke="null" id="svg_36" d="m285.31969,204.05864c0.99881,1.48394 1.85378,2.63755 1.95016,3.8475c0.27403,3.43927 0.98432,7.61512 -3.89427,8.28859c-1.2602,0.17396 -4.07695,-3.06917 -4.37568,-5.00229c-0.58467,-3.78399 -0.86735,-8.48071 6.31978,-7.1338z" fill="#d64211"/>
   <path stroke="null" id="svg_37" d="m287.68092,506.10856c1.73403,1.29401 3.52297,2.51595 4.06704,4.1292c0.23473,0.69592 -2.01095,2.97314 -3.30343,3.12132c-1.28586,0.14746 -4.06747,-1.70062 -3.95776,-2.27774c0.32927,-1.73249 1.74969,-3.27163 3.19414,-4.97278z" fill="#d64211"/>
   <path stroke="null" id="svg_38" d="m375.74089,336.74089c-2.59642,-0.60594 -4.80646,-1.58709 -7.01647,-2.56823c1.55736,-1.41168 3.1363,-4.03305 4.66792,-4.00757c4.53625,0.07552 3.36146,3.4494 2.34854,6.5758z" fill="#d64211"/>
   <path stroke="null" id="svg_39" d="m277.40817,484.03539c2.25656,-1.43183 4.48894,-2.33904 6.72132,-3.24626c-0.0246,2.126 -0.04917,4.25205 -0.07381,6.37805c-2.2239,-0.86904 -4.44783,-1.73808 -6.64751,-3.13179z" fill="#d64211"/>
   <path stroke="null" id="svg_40" d="m810.35763,713.28659c1.61445,1.47275 3.33756,2.92127 3.62465,4.59879c0.14502,0.84719 -2.17586,2.66495 -3.6349,2.99228c-1.00913,0.2265 -3.62096,-1.73823 -3.50869,-2.04968c0.69517,-1.92979 1.95898,-3.66868 3.51894,-5.54139z" fill="#d64211"/>
   <path stroke="null" id="svg_41" d="m822.1194,726.05574c-0.62145,2.4267 -1.57751,4.51724 -2.53358,6.60769c-1.39916,-1.26734 -3.9722,-2.52811 -3.97992,-3.80323c-0.0241,-4.01506 2.95341,-4.1677 6.5135,-2.80446z" fill="#d64211"/>
   <path stroke="null" id="svg_42" d="m694.70831,646.71972c0.41169,2.41114 0.53479,4.65351 0.10252,6.79122c-0.06004,0.29734 -3.42129,0.67671 -4.24618,-0.04937c-1.07479,-0.94593 -2.03968,-3.64922 -1.45013,-4.3625c1.09947,-1.33041 3.35477,-1.77058 5.59379,-2.37936z" fill="#d64211"/>
   <path stroke="null" id="svg_43" d="m386.32131,337.73942c-3.64628,-2.82221 -4.54986,-5.65273 0.00369,-7.6194c1.05044,-0.45368 3.00653,1.04693 4.54587,1.64821c-1.33803,2.0134 -2.67602,4.02682 -4.54956,5.97119z" fill="#d64211"/>
   <path stroke="null" id="svg_44" d="m245.99616,273.03377c2.33147,-0.00182 4.25509,0.31631 6.17873,0.63448c-0.28717,1.55848 -0.11471,3.46456 -1.00771,4.56479c-0.70684,0.87094 -2.72111,0.75292 -4.15483,1.07405c-0.47467,-1.98446 -0.94938,-3.96889 -1.01619,-6.27332z" fill="#d64211"/>
   <path stroke="null" id="svg_45" d="m798.78672,702.51354c2.13372,0.44973 4.33645,0.86778 5.42704,2.16034c0.53084,0.62897 -0.63556,3.28995 -1.7494,4.282c-0.80895,0.72041 -2.79287,0.21108 -4.25282,0.25008c0.06214,-2.12142 0.12427,-4.24284 0.57518,-6.69241z" fill="#d64211"/>
   <path stroke="null" id="svg_46" d="m694.79605,635.65865c-3.24705,1.39517 -6.21137,1.92119 -5.65761,-2.315c0.21614,-1.65312 2.51216,-4.42062 3.70275,-4.34547c4.64605,0.29328 3.22631,3.53962 1.95486,6.66047z" fill="#d64211"/>
   <path stroke="null" id="svg_47" d="m326.16522,826.96103c-1.3918,1.95436 -2.84249,3.55633 -4.58923,4.75662c-0.21529,0.14786 -2.78253,-1.7803 -2.88419,-2.86639c-0.1362,-1.45508 1.06935,-3.02715 1.69877,-4.54902c1.87517,0.72803 3.75035,1.45597 5.77465,2.65879z" fill="#d64211"/>
  </g>
 </g>
</svg>